<svg xmlns="http://www.w3.org/2000/svg" width="100" height="100" viewBox="0 0 1286 1279" version="1.1"><path d="M 886.329 489.018 C 832.885 494.221, 798.350 514.695, 785.344 548.885 C 781.307 559.499, 779.746 568.591, 779.658 582 C 779.452 613.546, 791.601 636.098, 818.053 653.273 C 832.481 662.640, 843.532 667.530, 875 678.470 C 914.227 692.107, 924.599 700.391, 922.469 716.386 C 920.539 730.886, 911.674 739.983, 894.940 744.638 C 885.099 747.376, 857.848 747.096, 840.018 744.074 C 824.362 741.421, 804.328 736.604, 788.059 731.581 C 781.766 729.638, 776.456 728.210, 776.259 728.408 C 776.062 728.605, 786.835 744.789, 800.200 764.373 C 827.752 804.744, 823.244 800.512, 842.500 804.085 C 859.812 807.296, 883.812 808.574, 901.252 807.212 C 966.043 802.154, 1001.204 772.581, 1007.083 718.204 C 1009.662 694.342, 1004.853 672.343, 993.622 656.629 C 980.726 638.586, 962.528 627.688, 924.894 615.470 C 887.924 603.469, 878.112 599.260, 870.747 592.243 C 866.582 588.275, 864 582.114, 864 576.144 C 864 563.840, 873.669 555.077, 892.500 550.315 C 903.387 547.562, 933.790 547.808, 948.557 550.769 C 960.126 553.089, 975.944 557.947, 982.126 561.078 C 984.121 562.088, 986.033 562.634, 986.376 562.290 C 986.719 561.947, 987 547.372, 987 529.901 C 987 500.513, 986.869 498.096, 985.250 497.613 C 980.214 496.110, 960.663 492.698, 947.044 490.946 C 929.252 488.656, 899.687 487.718, 886.329 489.018 M 276 647.989 L 276 800 375.500 800 L 475 800 475 766 L 475 732 416.504 732 L 358.008 732 357.754 614.250 L 357.500 496.500 316.750 496.239 L 276 495.978 276 647.989 M 508.462 497.250 C 508.200 497.938, 508.102 566.225, 508.243 649 L 508.500 799.500 549.243 799.761 L 589.986 800.022 590.243 729.935 L 590.500 659.847 638.412 729.924 L 686.324 800 735.221 800 C 774.060 800, 783.968 799.743, 783.390 798.750 C 782.990 798.063, 757.914 761.319, 727.665 717.098 C 697.416 672.877, 672.667 636.153, 672.667 635.489 C 672.667 634.826, 694.904 603.611, 722.083 566.123 C 749.263 528.635, 771.652 497.517, 771.837 496.971 C 772.057 496.322, 757.051 496.069, 728.451 496.239 L 684.728 496.500 638.805 560 C 613.547 594.925, 592.234 624.159, 591.441 624.964 C 590.186 626.239, 590 618.007, 590 561.214 L 590 496 549.469 496 C 517.964 496, 508.831 496.278, 508.462 497.250 M 279.243 889.750 L 279.500 956.500 287.241 956.792 L 294.983 957.084 295.241 903.402 L 295.500 849.721 328.125 903.110 L 360.749 956.500 369.875 956.788 L 379 957.075 379 890.038 L 379 823 371.009 823 L 363.017 823 362.759 876.479 L 362.500 929.957 330 876.506 L 297.500 823.055 288.243 823.028 L 278.986 823 279.243 889.750 M 594 845.500 L 594 860 586 860 L 578 860 578 867 L 578 874 585.953 874 L 593.907 874 594.203 910.428 C 594.488 945.412, 594.582 946.969, 596.565 949.678 C 599.953 954.309, 604.547 955.930, 616.325 956.651 L 627 957.304 627 949.652 L 627 942 620.223 942 C 608.260 942, 609 944.344, 609 906.443 L 609 874 618 874 L 627 874 627 867 L 627 860 618 860 L 609 860 609 845.500 L 609 831 601.500 831 L 594 831 594 845.500 M 433 858.362 C 417.051 861.827, 405.031 874.255, 400.357 892.113 C 397.004 904.923, 399.137 925.508, 405.009 937.018 C 407.626 942.147, 414.300 949.525, 419 952.485 C 434.141 962.020, 458.084 959.916, 469.997 948.003 C 474.442 943.558, 479.692 933.520, 480.198 928.500 L 480.500 925.500 473.344 925.208 L 466.189 924.916 464.535 929.896 C 462.622 935.653, 457.198 941.119, 451.547 942.984 C 446.594 944.619, 434.448 943.877, 429.892 941.662 C 421.454 937.558, 416.033 929.282, 415.230 919.279 L 414.726 913 448.363 913 L 482 913 482 906.160 C 482 902.398, 481.129 895.916, 480.065 891.756 C 475.212 872.779, 464.134 860.937, 448.566 858.087 C 441.477 856.788, 440.137 856.812, 433 858.362 M 491 860.585 C 491 860.907, 497.794 871.043, 506.098 883.109 C 515.113 896.210, 520.970 905.636, 520.635 906.509 C 520.327 907.312, 512.858 918.744, 504.037 931.914 C 495.217 945.083, 488 956.115, 488 956.429 C 488 956.743, 491.995 957, 496.878 957 L 505.756 957 518.017 937.473 C 524.760 926.734, 530.552 917.781, 530.888 917.579 C 531.225 917.377, 536 924.436, 541.500 933.266 C 547 942.096, 552.740 951.048, 554.256 953.160 L 557.013 957 566.113 957 C 573.751 957, 575.122 956.761, 574.644 955.515 C 574.331 954.699, 566.745 943.121, 557.787 929.787 C 548.829 916.453, 541.346 905.185, 541.159 904.748 C 540.971 904.311, 547.609 894.284, 555.909 882.466 C 564.209 870.648, 571 860.759, 571 860.489 C 571 860.220, 567.019 860, 562.152 860 L 553.305 860 542.230 876.645 L 531.156 893.291 524.583 883.128 C 520.967 877.538, 516.167 870.048, 513.915 866.483 L 509.821 860 500.410 860 C 495.235 860, 491 860.263, 491 860.585 M 429.168 874.603 C 421.712 878.319, 416.544 885.753, 415.347 894.483 L 414.728 899 440.492 899 L 466.256 899 465.607 894.945 C 462.731 876.958, 444.673 866.877, 429.168 874.603" stroke="none" fill="#fcfafa" fill-rule="evenodd"/><path d="M 51 641.500 L 51 1232 641.500 1232 L 1232 1232 1232 641.500 L 1232 51 641.500 51 L 51 51 51 641.500 M 886.329 489.018 C 832.885 494.221, 798.350 514.695, 785.344 548.885 C 781.307 559.499, 779.746 568.591, 779.658 582 C 779.452 613.546, 791.601 636.098, 818.053 653.273 C 832.481 662.640, 843.532 667.530, 875 678.470 C 914.227 692.107, 924.599 700.391, 922.469 716.386 C 920.539 730.886, 911.674 739.983, 894.940 744.638 C 885.099 747.376, 857.848 747.096, 840.018 744.074 C 824.362 741.421, 804.328 736.604, 788.059 731.581 C 781.766 729.638, 776.456 728.210, 776.259 728.408 C 776.062 728.605, 786.835 744.789, 800.200 764.373 C 827.752 804.744, 823.244 800.512, 842.500 804.085 C 859.812 807.296, 883.812 808.574, 901.252 807.212 C 966.043 802.154, 1001.204 772.581, 1007.083 718.204 C 1009.662 694.342, 1004.853 672.343, 993.622 656.629 C 980.726 638.586, 962.528 627.688, 924.894 615.470 C 887.924 603.469, 878.112 599.260, 870.747 592.243 C 866.582 588.275, 864 582.114, 864 576.144 C 864 563.840, 873.669 555.077, 892.500 550.315 C 903.387 547.562, 933.790 547.808, 948.557 550.769 C 960.126 553.089, 975.944 557.947, 982.126 561.078 C 984.121 562.088, 986.033 562.634, 986.376 562.290 C 986.719 561.947, 987 547.372, 987 529.901 C 987 500.513, 986.869 498.096, 985.250 497.613 C 980.214 496.110, 960.663 492.698, 947.044 490.946 C 929.252 488.656, 899.687 487.718, 886.329 489.018 M 276 647.989 L 276 800 375.500 800 L 475 800 475 766 L 475 732 416.504 732 L 358.008 732 357.754 614.250 L 357.500 496.500 316.750 496.239 L 276 495.978 276 647.989 M 508.462 497.250 C 508.200 497.938, 508.102 566.225, 508.243 649 L 508.500 799.500 549.243 799.761 L 589.986 800.022 590.243 729.935 L 590.500 659.847 638.412 729.924 L 686.324 800 735.221 800 C 774.060 800, 783.968 799.743, 783.390 798.750 C 782.990 798.063, 757.914 761.319, 727.665 717.098 C 697.416 672.877, 672.667 636.153, 672.667 635.489 C 672.667 634.826, 694.904 603.611, 722.083 566.123 C 749.263 528.635, 771.652 497.517, 771.837 496.971 C 772.057 496.322, 757.051 496.069, 728.451 496.239 L 684.728 496.500 638.805 560 C 613.547 594.925, 592.234 624.159, 591.441 624.964 C 590.186 626.239, 590 618.007, 590 561.214 L 590 496 549.469 496 C 517.964 496, 508.831 496.278, 508.462 497.250 M 279.243 889.750 L 279.500 956.500 287.241 956.792 L 294.983 957.084 295.241 903.402 L 295.500 849.721 328.125 903.110 L 360.749 956.500 369.875 956.788 L 379 957.075 379 890.038 L 379 823 371.009 823 L 363.017 823 362.759 876.479 L 362.500 929.957 330 876.506 L 297.500 823.055 288.243 823.028 L 278.986 823 279.243 889.750 M 594 845.500 L 594 860 586 860 L 578 860 578 867 L 578 874 585.953 874 L 593.907 874 594.203 910.428 C 594.488 945.412, 594.582 946.969, 596.565 949.678 C 599.953 954.309, 604.547 955.930, 616.325 956.651 L 627 957.304 627 949.652 L 627 942 620.223 942 C 608.260 942, 609 944.344, 609 906.443 L 609 874 618 874 L 627 874 627 867 L 627 860 618 860 L 609 860 609 845.500 L 609 831 601.500 831 L 594 831 594 845.500 M 433 858.362 C 417.051 861.827, 405.031 874.255, 400.357 892.113 C 397.004 904.923, 399.137 925.508, 405.009 937.018 C 407.626 942.147, 414.300 949.525, 419 952.485 C 434.141 962.020, 458.084 959.916, 469.997 948.003 C 474.442 943.558, 479.692 933.520, 480.198 928.500 L 480.500 925.500 473.344 925.208 L 466.189 924.916 464.535 929.896 C 462.622 935.653, 457.198 941.119, 451.547 942.984 C 446.594 944.619, 434.448 943.877, 429.892 941.662 C 421.454 937.558, 416.033 929.282, 415.230 919.279 L 414.726 913 448.363 913 L 482 913 482 906.160 C 482 902.398, 481.129 895.916, 480.065 891.756 C 475.212 872.779, 464.134 860.937, 448.566 858.087 C 441.477 856.788, 440.137 856.812, 433 858.362 M 491 860.585 C 491 860.907, 497.794 871.043, 506.098 883.109 C 515.113 896.210, 520.970 905.636, 520.635 906.509 C 520.327 907.312, 512.858 918.744, 504.037 931.914 C 495.217 945.083, 488 956.115, 488 956.429 C 488 956.743, 491.995 957, 496.878 957 L 505.756 957 518.017 937.473 C 524.760 926.734, 530.552 917.781, 530.888 917.579 C 531.225 917.377, 536 924.436, 541.500 933.266 C 547 942.096, 552.740 951.048, 554.256 953.160 L 557.013 957 566.113 957 C 573.751 957, 575.122 956.761, 574.644 955.515 C 574.331 954.699, 566.745 943.121, 557.787 929.787 C 548.829 916.453, 541.346 905.185, 541.159 904.748 C 540.971 904.311, 547.609 894.284, 555.909 882.466 C 564.209 870.648, 571 860.759, 571 860.489 C 571 860.220, 567.019 860, 562.152 860 L 553.305 860 542.230 876.645 L 531.156 893.291 524.583 883.128 C 520.967 877.538, 516.167 870.048, 513.915 866.483 L 509.821 860 500.410 860 C 495.235 860, 491 860.263, 491 860.585 M 429.168 874.603 C 421.712 878.319, 416.544 885.753, 415.347 894.483 L 414.728 899 440.492 899 L 466.256 899 465.607 894.945 C 462.731 876.958, 444.673 866.877, 429.168 874.603" stroke="none" fill="#fc5c04" fill-rule="evenodd"/></svg>